<mxfile host="app.diagrams.net" modified="2021-06-07T12:44:21.997Z" agent="5.0 (X11; Linux x86_64) AppleWebKit/537.36 (KHTML, like Gecko) Chrome/90.0.4430.212 Safari/537.36" etag="t8C6B0HHmw9192cwbsZ9" version="14.7.2" type="github">
  <diagram id="R2lEEEUBdFMjLlhIrx00" name="Page-1">
    <mxGraphModel dx="5370" dy="4596" grid="1" gridSize="10" guides="1" tooltips="1" connect="1" arrows="1" fold="1" page="1" pageScale="1" pageWidth="1654" pageHeight="1169" math="0" shadow="0" extFonts="Permanent Marker^https://fonts.googleapis.com/css?family=Permanent+Marker">
      <root>
        <mxCell id="0" />
        <mxCell id="1" parent="0" />
        <mxCell id="UEaJhCmyUdEMvhziBzeF-36" value="" style="swimlane;startSize=0;rounded=0;fontColor=#9FA5B3;strokeColor=#9FA5B3;fillColor=none;align=left;" parent="1" vertex="1">
          <mxGeometry x="-3240" y="-3443" width="1240" height="280" as="geometry" />
        </mxCell>
        <mxCell id="UEaJhCmyUdEMvhziBzeF-37" value="&lt;b style=&quot;font-size: 14px;&quot;&gt;Client Side&lt;/b&gt;" style="text;html=1;align=center;verticalAlign=middle;resizable=0;points=[];autosize=1;strokeColor=none;fontColor=#9FA5B3;fontSize=14;" parent="UEaJhCmyUdEMvhziBzeF-36" vertex="1">
          <mxGeometry x="15" width="90" height="20" as="geometry" />
        </mxCell>
        <mxCell id="UEaJhCmyUdEMvhziBzeF-32" value="" style="swimlane;startSize=0;rounded=0;fontColor=#9FA5B3;strokeColor=#9FA5B3;fillColor=none;align=left;" parent="1" vertex="1">
          <mxGeometry x="-3240" y="-3143" width="1240" height="723" as="geometry" />
        </mxCell>
        <mxCell id="UEaJhCmyUdEMvhziBzeF-6" value="Data Layer" style="swimlane;rounded=0;strokeColor=#000000;fillColor=#ffffff;" parent="UEaJhCmyUdEMvhziBzeF-32" vertex="1">
          <mxGeometry x="50" y="270" width="1170" height="200" as="geometry" />
        </mxCell>
        <mxCell id="UEaJhCmyUdEMvhziBzeF-7" value="&lt;div style=&quot;text-align: left&quot;&gt;&lt;span&gt;&lt;br&gt;&lt;/span&gt;&lt;/div&gt;&lt;div style=&quot;text-align: left&quot;&gt;&lt;span&gt;Linked Data Storage&lt;/span&gt;&lt;/div&gt;&lt;font style=&quot;font-size: 12px&quot;&gt;&lt;div style=&quot;text-align: left&quot;&gt;&lt;b&gt;Association File Storage&lt;/b&gt;&lt;br&gt;&lt;/div&gt;&lt;div style=&quot;text-align: left&quot;&gt;&lt;span&gt;(Wikibase)&lt;/span&gt;&lt;/div&gt;&lt;/font&gt;" style="rounded=1;whiteSpace=wrap;html=1;strokeColor=#000000;fillColor=#ffffff;" parent="UEaJhCmyUdEMvhziBzeF-6" vertex="1">
          <mxGeometry x="350" y="60" width="250" height="100" as="geometry" />
        </mxCell>
        <mxCell id="UEaJhCmyUdEMvhziBzeF-33" value="&lt;b style=&quot;font-size: 14px;&quot;&gt;Server Side&lt;/b&gt;" style="text;html=1;align=center;verticalAlign=middle;resizable=0;points=[];autosize=1;strokeColor=none;fontColor=#9FA5B3;fontSize=14;" parent="UEaJhCmyUdEMvhziBzeF-32" vertex="1">
          <mxGeometry x="15" width="90" height="20" as="geometry" />
        </mxCell>
        <mxCell id="UEaJhCmyUdEMvhziBzeF-3" value="Data Storage Layer" style="swimlane;rounded=0;strokeColor=#000000;fillColor=#ffffff;" parent="UEaJhCmyUdEMvhziBzeF-32" vertex="1">
          <mxGeometry x="50" y="500" width="1170" height="200" as="geometry" />
        </mxCell>
        <mxCell id="UEaJhCmyUdEMvhziBzeF-1" value="&lt;div style=&quot;text-align: left&quot;&gt;&lt;span&gt;&lt;br&gt;&lt;/span&gt;&lt;/div&gt;&lt;div style=&quot;text-align: left&quot;&gt;&lt;span&gt;Files&lt;/span&gt;&lt;/div&gt;&lt;font style=&quot;font-size: 12px&quot;&gt;&lt;div style=&quot;text-align: left&quot;&gt;&lt;b&gt;Preprocessed Pointclouds&lt;/b&gt;&lt;br&gt;&lt;/div&gt;&lt;div style=&quot;text-align: left&quot;&gt;&lt;span&gt;(nginx)&lt;/span&gt;&lt;/div&gt;&lt;/font&gt;" style="rounded=1;whiteSpace=wrap;html=1;strokeColor=#000000;fillColor=#ffffff;" parent="UEaJhCmyUdEMvhziBzeF-3" vertex="1">
          <mxGeometry x="55" y="63" width="210" height="100" as="geometry" />
        </mxCell>
        <mxCell id="UEaJhCmyUdEMvhziBzeF-26" value="&lt;div style=&quot;text-align: left&quot;&gt;&lt;span&gt;&lt;br&gt;&lt;/span&gt;&lt;/div&gt;&lt;div style=&quot;text-align: left&quot;&gt;&lt;span&gt;Service&lt;/span&gt;&lt;/div&gt;&lt;font style=&quot;font-size: 12px&quot;&gt;&lt;div style=&quot;text-align: left&quot;&gt;&lt;b&gt;Mesh Storage&lt;/b&gt;&lt;br&gt;&lt;/div&gt;&lt;div style=&quot;text-align: left&quot;&gt;&lt;span&gt;(Kompakkt Backend Layer)&lt;/span&gt;&lt;/div&gt;&lt;/font&gt;" style="rounded=1;whiteSpace=wrap;html=1;strokeColor=#000000;fillColor=#ffffff;" parent="UEaJhCmyUdEMvhziBzeF-3" vertex="1">
          <mxGeometry x="665" y="63" width="210" height="100" as="geometry" />
        </mxCell>
        <mxCell id="UEaJhCmyUdEMvhziBzeF-9" value="Logic Layer" style="swimlane;rounded=0;strokeColor=#000000;fillColor=#ffffff;" parent="1" vertex="1">
          <mxGeometry x="-3190" y="-3103" width="1170" height="200" as="geometry" />
        </mxCell>
        <mxCell id="UEaJhCmyUdEMvhziBzeF-10" value="&lt;div style=&quot;text-align: left&quot;&gt;&lt;span&gt;&lt;br&gt;&lt;/span&gt;&lt;/div&gt;&lt;div style=&quot;text-align: left&quot;&gt;Service&lt;/div&gt;&lt;font style=&quot;font-size: 12px&quot;&gt;&lt;div style=&quot;text-align: left&quot;&gt;&lt;b&gt;Association Metadata Assembly&lt;/b&gt;&lt;br&gt;&lt;/div&gt;&lt;div style=&quot;text-align: left&quot;&gt;&lt;span&gt;(NodeJS Service)&lt;/span&gt;&lt;/div&gt;&lt;/font&gt;" style="rounded=1;whiteSpace=wrap;html=1;strokeColor=#000000;fillColor=#ffffff;" parent="UEaJhCmyUdEMvhziBzeF-9" vertex="1">
          <mxGeometry x="350" y="60" width="250" height="100" as="geometry" />
        </mxCell>
        <mxCell id="UEaJhCmyUdEMvhziBzeF-11" value="Presentation Layer" style="swimlane;rounded=1;strokeColor=#000000;fillColor=#ffffff;" parent="1" vertex="1">
          <mxGeometry x="-3190" y="-3403" width="1170" height="200" as="geometry" />
        </mxCell>
        <mxCell id="UEaJhCmyUdEMvhziBzeF-24" style="edgeStyle=orthogonalEdgeStyle;rounded=0;orthogonalLoop=1;jettySize=auto;html=1;exitX=1;exitY=0.5;exitDx=0;exitDy=0;entryX=0;entryY=0.5;entryDx=0;entryDy=0;startArrow=classic;startFill=1;" parent="UEaJhCmyUdEMvhziBzeF-11" source="UEaJhCmyUdEMvhziBzeF-13" target="UEaJhCmyUdEMvhziBzeF-12" edge="1">
          <mxGeometry relative="1" as="geometry" />
        </mxCell>
        <mxCell id="UEaJhCmyUdEMvhziBzeF-13" value="&lt;div style=&quot;text-align: left&quot;&gt;&lt;span&gt;&lt;br&gt;&lt;/span&gt;&lt;/div&gt;&lt;div style=&quot;text-align: left&quot;&gt;Browser Application&lt;/div&gt;&lt;font style=&quot;font-size: 12px&quot;&gt;&lt;div style=&quot;text-align: left&quot;&gt;&lt;b&gt;Annotation Component&lt;/b&gt;&lt;br&gt;&lt;/div&gt;&lt;div style=&quot;text-align: left&quot;&gt;&lt;span&gt;(Kompakkt Annotaton Layer)&lt;/span&gt;&lt;/div&gt;&lt;/font&gt;" style="rounded=1;whiteSpace=wrap;html=1;strokeColor=#000000;fillColor=#ffffff;" parent="UEaJhCmyUdEMvhziBzeF-11" vertex="1">
          <mxGeometry x="350" y="60" width="250" height="100" as="geometry" />
        </mxCell>
        <mxCell id="UEaJhCmyUdEMvhziBzeF-23" style="edgeStyle=orthogonalEdgeStyle;rounded=0;orthogonalLoop=1;jettySize=auto;html=1;entryX=0;entryY=0.5;entryDx=0;entryDy=0;startArrow=classic;startFill=1;" parent="UEaJhCmyUdEMvhziBzeF-11" source="UEaJhCmyUdEMvhziBzeF-14" target="UEaJhCmyUdEMvhziBzeF-13" edge="1">
          <mxGeometry relative="1" as="geometry" />
        </mxCell>
        <mxCell id="UEaJhCmyUdEMvhziBzeF-14" value="&lt;div style=&quot;text-align: left&quot;&gt;&lt;span&gt;&lt;br&gt;&lt;/span&gt;&lt;/div&gt;&lt;div style=&quot;text-align: left&quot;&gt;Browser Application&lt;/div&gt;&lt;font style=&quot;font-size: 12px&quot;&gt;&lt;div style=&quot;text-align: left&quot;&gt;&lt;b&gt;Pointcloud Renderer&lt;/b&gt;&lt;br&gt;&lt;/div&gt;&lt;div style=&quot;text-align: left&quot;&gt;&lt;span&gt;(3DHOP/potree)&lt;/span&gt;&lt;/div&gt;&lt;/font&gt;" style="rounded=1;whiteSpace=wrap;html=1;strokeColor=#000000;fillColor=#ffffff;" parent="UEaJhCmyUdEMvhziBzeF-11" vertex="1">
          <mxGeometry x="50" y="60" width="220" height="100" as="geometry" />
        </mxCell>
        <mxCell id="UEaJhCmyUdEMvhziBzeF-12" value="&lt;div style=&quot;text-align: left&quot;&gt;&lt;span&gt;&lt;br&gt;&lt;/span&gt;&lt;/div&gt;&lt;div style=&quot;text-align: left&quot;&gt;Browser Application&lt;/div&gt;&lt;font style=&quot;font-size: 12px&quot;&gt;&lt;div style=&quot;text-align: left&quot;&gt;&lt;b&gt;Mesh/Image Renderer&lt;/b&gt;&lt;br&gt;&lt;/div&gt;&lt;div style=&quot;text-align: left&quot;&gt;&lt;span&gt;(BabylonJS)&lt;/span&gt;&lt;/div&gt;&lt;/font&gt;" style="rounded=1;whiteSpace=wrap;html=1;strokeColor=#000000;fillColor=#ffffff;" parent="UEaJhCmyUdEMvhziBzeF-11" vertex="1">
          <mxGeometry x="680" y="60" width="180" height="100" as="geometry" />
        </mxCell>
        <mxCell id="UEaJhCmyUdEMvhziBzeF-21" style="edgeStyle=orthogonalEdgeStyle;rounded=0;orthogonalLoop=1;jettySize=auto;html=1;entryX=0.5;entryY=0;entryDx=0;entryDy=0;startArrow=classic;startFill=1;dashed=1;" parent="1" source="UEaJhCmyUdEMvhziBzeF-13" target="UEaJhCmyUdEMvhziBzeF-10" edge="1">
          <mxGeometry relative="1" as="geometry" />
        </mxCell>
        <mxCell id="UEaJhCmyUdEMvhziBzeF-35" style="edgeStyle=orthogonalEdgeStyle;rounded=0;orthogonalLoop=1;jettySize=auto;html=1;entryX=0.5;entryY=0;entryDx=0;entryDy=0;fontColor=#9FA5B3;startArrow=classic;startFill=1;dashed=1;" parent="1" source="UEaJhCmyUdEMvhziBzeF-12" target="UEaJhCmyUdEMvhziBzeF-26" edge="1">
          <mxGeometry relative="1" as="geometry" />
        </mxCell>
        <mxCell id="UEaJhCmyUdEMvhziBzeF-22" style="edgeStyle=orthogonalEdgeStyle;rounded=0;orthogonalLoop=1;jettySize=auto;html=1;exitX=0.5;exitY=1;exitDx=0;exitDy=0;entryX=0.5;entryY=0;entryDx=0;entryDy=0;startArrow=classic;startFill=1;dashed=1;" parent="1" source="UEaJhCmyUdEMvhziBzeF-10" target="UEaJhCmyUdEMvhziBzeF-7" edge="1">
          <mxGeometry relative="1" as="geometry" />
        </mxCell>
        <mxCell id="UEaJhCmyUdEMvhziBzeF-25" style="edgeStyle=orthogonalEdgeStyle;rounded=0;orthogonalLoop=1;jettySize=auto;html=1;exitX=0.5;exitY=1;exitDx=0;exitDy=0;entryX=0.5;entryY=0;entryDx=0;entryDy=0;dashed=1;startArrow=classic;startFill=1;" parent="1" source="UEaJhCmyUdEMvhziBzeF-14" target="UEaJhCmyUdEMvhziBzeF-1" edge="1">
          <mxGeometry relative="1" as="geometry" />
        </mxCell>
      </root>
    </mxGraphModel>
  </diagram>
</mxfile>
